<svg xmlns="http://www.w3.org/2000/svg" version="1.1" xmlns:xlink="http://www.w3.org/1999/xlink" width="512" height="512" x="0" y="0" viewBox="0 0 100 100" style="enable-background:new 0 0 512 512" xml:space="preserve"><g><path d="M93.97 14.19H6.03a3.53 3.53 0 0 0-3.53 3.53v10.59c2.39 0 4.74.15 7.06.43v-7.49h80.88v57.5H59.57c.28 2.31.43 4.67.43 7.06h33.97a3.53 3.53 0 0 0 3.53-3.53V17.72a3.53 3.53 0 0 0-3.53-3.53z" fill="#ffffff" opacity="1" data-original="#000000"></path><path d="M2.5 38.307v8.97c21.25 0 38.53 17.28 38.53 38.53H50c0-26.19-21.31-47.5-47.5-47.5z" fill="#ffffff" opacity="1" data-original="#000000"></path><path d="M2.5 56.237v8.97c11.36 0 20.6 9.24 20.6 20.6h8.97c0-16.3-13.27-29.57-29.57-29.57zM14.14 85.807H2.5v-11.64c6.43 0 11.64 5.21 11.64 11.64z" fill="#ffffff" opacity="1" data-original="#000000"></path></g></svg>