<svg xmlns="http://www.w3.org/2000/svg" version="1.1" xmlns:xlink="http://www.w3.org/1999/xlink" width="512" height="512" x="0" y="0" viewBox="0 0 512 512" style="enable-background:new 0 0 512 512" xml:space="preserve"><g><path d="M426.667 448h-128a21.333 21.333 0 1 1 0-42.667h128A21.357 21.357 0 0 0 448 384V128a21.357 21.357 0 0 0-21.333-21.333H85.333A21.357 21.357 0 0 0 64 128v42.667a21.333 21.333 0 0 1-42.667 0V128a64.073 64.073 0 0 1 64-64h341.334a64.073 64.073 0 0 1 64 64v256a64.073 64.073 0 0 1-64 64z" fill="#ffffff" opacity="1" data-original="#000000"></path><path d="M213.333 448A21.333 21.333 0 0 1 192 426.667c0-82.343-66.991-149.333-149.333-149.333a21.333 21.333 0 1 1 0-42.667c105.869 0 192 86.131 192 192A21.333 21.333 0 0 1 213.333 448z" fill="#ffffff" opacity="1" data-original="#000000"></path><path d="M128 448a21.333 21.333 0 0 1-21.333-21.333 64.073 64.073 0 0 0-64-64 21.333 21.333 0 0 1 0-42.667 106.787 106.787 0 0 1 106.666 106.667A21.333 21.333 0 0 1 128 448z" fill="#ffffff" opacity="1" data-original="#000000"></path><circle cx="42.667" cy="426.667" r="21.333" fill="#ffffff" opacity="1" data-original="#000000"></circle></g></svg>